<?xml version="1.0" encoding="UTF-8"?>
<svg width="103.93" height="125.21" version="1.1" viewBox="0 0 27.498692 33.128684" xmlns="http://www.w3.org/2000/svg" xmlns:cc="http://creativecommons.org/ns#" xmlns:dc="http://purl.org/dc/elements/1.1/" xmlns:rdf="http://www.w3.org/1999/02/22-rdf-syntax-ns#">
<metadata>
<rdf:RDF>
<cc:Work rdf:about="">
<dc:format>image/svg+xml</dc:format>
<dc:type rdf:resource="http://purl.org/dc/dcmitype/StillImage"/>
<dc:title/>
</cc:Work>
</rdf:RDF>
</metadata>
<g transform="translate(-78.246 -69.982)">
<g>
<g transform="matrix(.7656 0 0 .68336 23.047 23.94)" fill="none" stroke="#000">
<g fill="#333" stroke="none">
<circle cx="90.07" cy="85.323" r="17.947"/>
<path d="m72.099 85.806c1.3236 11.273 7.2899 21.665 18.663 30.049 9.2208-7.6133 16.091-15.98 17.242-30.049"/>
</g>
</g>
<g transform="matrix(.88094 0 0 .88094 12.86 8.0217)" stroke="#fff" stroke-width=".26458px">
<path d="m82.052 80.244 15.769 0.13364c-0.15949 4.2711-0.50836 8.5579-2.4221 12.478h-10.14c-2.3293-4.0217-3-8.2364-3.2072-12.612z" fill="#fff"/>
<path d="m78.527 93.441h23.084c-0.23238 1.3567-1.6066 2.0928-3.078 2.7061h-16.643c-2.1008-0.76877-3.1523-1.6854-3.3635-2.7061z" fill="#fff"/>
<path d="m87.124 79.002c-3.0443-3.1018 2.5008-3.3842-0.09449-6.8981" fill="none"/>
<path d="m90.497 78.995c-3.0443-3.1018 2.5008-3.3842-0.09449-6.8981" fill="none"/>
<path d="m93.663 78.995c-3.0443-3.1018 2.5008-3.3842-0.09449-6.8981" fill="none"/>
<path d="m96.518 90.083c1.4005 0.38813 5.4903-1.5279 5.3287-4.7273-0.20683-3.389-2.0021-4.0575-4.0592-4.6271l-0.06681 1.9711c1.3238 0.19647 2.1563 1.2624 2.0212 2.4722-0.25397 1.6367-1.1104 2.5671-2.656 2.6894z" fill="#fff"/>
</g>
</g>
</g>
</svg>
